Coordinates
version=1
nRows=42
nColumns=11
inDegrees=yes

Units are S.I. units (second, meters, Newtons, ...)
If the header above contains a line with 'inDegrees', this indicates whether rotational values are in degrees (yes) or radians (no).

endheader
time	pelvis_tilt	pelvis_tx	pelvis_ty	hip_flexion_l	hip_flexion_r	knee_angle_l	knee_angle_r	ankle_angle_l	ankle_angle_r	lumbar_extension
      4.90000000	     39.43855209	     -0.07670199	      1.09044899	     30.99081917	     32.82803047	    -63.47915404	    -58.28808273	    -38.88875393	    -46.27112234	    -30.81317481
      4.91000000	     39.44529358	     -0.07671917	      1.09046020	     30.97751451	     32.79311924	    -63.49078038	    -58.43640150	    -38.99415815	    -46.35758639	    -30.83320638
      4.92000000	     39.43488257	     -0.07671813	      1.09046286	     30.98503482	     32.77961886	    -63.51685284	    -58.59715224	    -38.98739101	    -46.38271402	    -30.82440553
      4.93000000	     39.42043630	     -0.07671185	      1.09046285	     30.99316392	     32.77150625	    -63.53862124	    -58.76605428	    -38.94541248	    -46.61709354	    -30.80475610
      4.94000000	     39.41252321	     -0.07670541	      1.09047846	     30.99979046	     32.76240868	    -63.56373087	    -58.95769397	    -38.95283850	    -46.62003708	    -30.78976037
      4.95000000	     39.40177405	     -0.07670380	      1.09047556	     31.00889653	     32.75283849	    -63.58316521	    -59.15097793	    -38.96240610	    -46.62435143	    -30.77948692
      4.96000000	     39.39070255	     -0.07668462	      1.09048075	     31.01565210	     32.74591810	    -63.60286779	    -59.34766325	    -38.96935027	    -46.64188625	    -30.76753560
      4.97000000	     39.37376822	     -0.07669848	      1.09047355	     31.03444493	     32.76185583	    -63.63145007	    -59.57668593	    -38.98291165	    -46.67658219	    -30.76586227
      4.98000000	     39.28036184	     -0.07671368	      1.09045450	     31.12374534	     32.82788933	    -63.63146051	    -59.73843143	    -38.99666364	    -46.88047340	    -30.66383425
      4.99000000	     39.27463866	     -0.07669044	      1.09051062	     31.12108487	     32.82094377	    -63.64820425	    -59.95390947	    -39.00144074	    -46.89976181	    -30.64883745
      5.00000000	     39.27683427	     -0.07665944	      1.09050037	     31.11617745	     32.83439791	    -63.67391755	    -60.20975309	    -39.00005708	    -46.92598898	    -30.65322996
      5.01000000	     39.27863206	     -0.07664399	      1.09050202	     31.11435162	     32.82640279	    -63.70117277	    -60.43695377	    -39.00121569	    -46.96062668	    -30.64197306
      5.02000000	     39.24986290	     -0.07674247	      1.09051263	     31.14148270	     32.81381876	    -63.70197415	    -60.57635836	    -38.99926358	    -46.98229520	    -30.63965288
      5.03000000	     39.22911962	     -0.07668938	      1.09050138	     31.16711717	     32.85960067	    -63.72626031	    -60.82592506	    -38.98781980	    -47.20905439	    -30.60888115
      5.04000000	     39.22298562	     -0.07669427	      1.09052275	     31.16781349	     32.86961217	    -63.73320579	    -61.03337295	    -38.98979791	    -47.22081988	    -30.59942735
      5.05000000	     39.20816567	     -0.07670382	      1.09051316	     31.18462031	     32.88188735	    -63.74751804	    -61.24698273	    -38.99135009	    -47.24346605	    -30.59738538
      5.06000000	     39.20348800	     -0.07670076	      1.09051919	     31.18916984	     32.88789227	    -63.75227887	    -61.42625487	    -38.99562667	    -47.24805912	    -30.58309347
      5.07000000	     39.16004473	     -0.07668952	      1.09049685	     31.23647934	     32.94304036	    -63.75516194	    -61.58024888	    -38.98178210	    -47.38651154	    -30.54228329
      5.08000000	     39.15769998	     -0.07669484	      1.09051500	     31.23959009	     32.95289878	    -63.76162912	    -61.76890964	    -38.98788427	    -47.39193692	    -30.53701910
      5.09000000	     39.15726270	     -0.07668623	      1.09051420	     31.24537301	     32.96891588	    -63.76481134	    -61.93660968	    -38.99618662	    -47.40055330	    -30.53901585
      5.10000000	     39.15246717	     -0.07669204	      1.09051121	     31.24844479	     32.97712403	    -63.76166224	    -62.07161567	    -38.99673952	    -47.41161592	    -30.53651102
      5.11000000	     39.14894499	     -0.07669805	      1.09051100	     31.25367300	     32.98719740	    -63.76035419	    -62.19008775	    -39.00297918	    -47.42601064	    -30.53582203
      5.12000000	     39.14728099	     -0.07672021	      1.09050521	     31.25896534	     33.00320813	    -63.75792134	    -62.30974692	    -39.01030258	    -47.43929691	    -30.54010030
      5.13000000	     39.14243081	     -0.07672399	      1.09051922	     31.26351609	     33.02095103	    -63.74574419	    -62.40288634	    -39.01511464	    -47.45672147	    -30.53916577
      5.14000000	     39.10215348	     -0.07672754	      1.09045166	     31.31272421	     33.08640135	    -63.73992805	    -62.49002967	    -39.03557996	    -47.59620346	    -30.50313314
      5.15000000	     39.10121746	     -0.07673435	      1.09045731	     31.31324555	     33.09858054	    -63.72890617	    -62.55317553	    -39.03584226	    -47.60438423	    -30.50476155
      5.16000000	     39.10051571	     -0.07675537	      1.09041821	     31.32267888	     33.11889408	    -63.72279970	    -62.60644823	    -39.03975981	    -47.60501617	    -30.51257697
      5.17000000	     39.03925351	     -0.07678578	      1.09044340	     31.38351115	     33.28185641	    -63.69243021	    -62.91242596	    -39.07520393	    -47.71132802	    -30.45676878
      5.18000000	     39.03987199	     -0.07680790	      1.09047191	     31.38054095	     33.29251340	    -63.66836428	    -62.93759487	    -39.07384626	    -47.70682396	    -30.46006928
      5.19000000	     39.04592751	     -0.07680371	      1.09045501	     31.38053648	     33.29834627	    -63.66743906	    -62.93478066	    -39.07358205	    -47.70627883	    -30.46028188
      5.20000000	     39.04535883	     -0.07682669	      1.09045330	     31.38327003	     33.31519055	    -63.65028424	    -62.91108776	    -39.06885831	    -47.70253987	    -30.47524104
      5.21000000	     39.04534221	     -0.07683382	      1.09046372	     31.38622141	     33.32697498	    -63.63529488	    -62.87505063	    -39.06499701	    -47.68497117	    -30.47808838
      5.22000000	     39.04532229	     -0.07683486	      1.09045762	     31.38927800	     33.33485165	    -63.62522181	    -62.81102426	    -39.06163457	    -47.67341042	    -30.48157672
      5.23000000	     39.04433778	     -0.07685202	      1.09046124	     31.38533638	     33.35508914	    -63.59862019	    -62.77356430	    -39.05774437	    -47.65591999	    -30.48923009
      5.24000000	     39.03125560	     -0.07682890	      1.09046297	     31.40116255	     33.38790447	    -63.58543003	    -62.72962093	    -39.02796880	    -47.46350414	    -30.45748869
      5.25000000	     39.03074623	     -0.07683026	      1.09045389	     31.40717130	     33.39667443	    -63.57634196	    -62.64322781	    -39.02397133	    -47.45606951	    -30.47143971
      5.26000000	     39.03388271	     -0.07682758	      1.09044927	     31.40308887	     33.40135704	    -63.56178977	    -62.54905819	    -39.01947653	    -47.44010841	    -30.47587450
      5.27000000	     39.03662373	     -0.07682143	      1.09045713	     31.39789727	     33.40411179	    -63.55002208	    -62.44029482	    -39.01261086	    -47.41621115	    -30.47771439
      5.28000000	     39.04048045	     -0.07682413	      1.09046056	     31.39551007	     33.40748268	    -63.53929816	    -62.33749507	    -39.00818400	    -47.38776901	    -30.48004999
      5.29000000	     39.05067056	     -0.07681698	      1.09045389	     31.38172751	     33.41298847	    -63.53017021	    -62.22951554	    -38.98969531	    -47.25559751	    -30.49054960
      5.30000000	     39.05393651	     -0.07682254	      1.09044932	     31.38123188	     33.42476558	    -63.52506466	    -62.13273531	    -38.98827453	    -47.24452555	    -30.50118293
      5.31000000	     39.05703359	     -0.07681016	      1.09045863	     31.37836637	     33.42724862	    -63.52020827	    -62.01396938	    -38.98547530	    -47.22175679	    -30.50161229
